<svg viewBox="0 0 48 48" xmlns="http://www.w3.org/2000/svg" id="dsmIcon"><g id="Icon/48/SensorDistance" stroke-width="1" fill="#7C7C7C" fill-rule="evenodd"><path d="M5.118 23h2.028c.454-2.279 2.47-4 4.879-4a4.983 4.983 0 014.879 4h2.028a6.977 6.977 0 00-13.814 0zm.007 2a6.977 6.977 0 0013.8 0h-2.031a4.984 4.984 0 01-4.87 3.95A4.984 4.984 0 017.157 25H5.125zm23.993-2h2.028c.454-2.279 2.47-4 4.879-4a4.983 4.983 0 014.879 4h2.028a6.977 6.977 0 00-13.814 0zm.007 2a6.977 6.977 0 0013.8 0h-2.031a4.984 4.984 0 01-4.87 3.95A4.984 4.984 0 0131.157 25h-2.032zm6.765-10h.085a8.976 8.976 0 11-8.024 13H20.05a8.976 8.976 0 11-7.938-13H35.89z" id="Shape"/><path d="M6 9a4 4 0 00-4 4v22a4 4 0 004 4h36a4 4 0 004-4V13a4 4 0 00-4-4H6zm0-2h36a6 6 0 016 6v22a6 6 0 01-6 6H6a6 6 0 01-6-6V13a6 6 0 016-6z" id="Shape"/></g></svg>