<svg viewBox="0 0 48 48" xmlns="http://www.w3.org/2000/svg" id="dsmIcon"><g id="Icon/48/SensorTouch" stroke-width="1" fill="#7C7C7C" fill-rule="evenodd"><path d="M15.338 29H12a4 4 0 01-4-4v-2a4 4 0 014-4h3.338A9.955 9.955 0 0014 24c0 1.821.487 3.53 1.338 5zm17.324-10H36a4 4 0 014 4v2a4 4 0 01-4 4h-3.338A9.955 9.955 0 0034 24c0-1.821-.487-3.53-1.338-5zM32 24a8 8 0 11-16 0 8 8 0 0116 0zm-9 .97V27a1 1 0 002 0v-2.03h2.016a1 1 0 000-2H25V21a1 1 0 00-2 0v1.97h-2.015a1 1 0 000 2H23z" id="Shape"/><path d="M10 6a4 4 0 00-4 4v28a4 4 0 004 4h28a4 4 0 004-4V10a4 4 0 00-4-4H10zm0-2h28a6 6 0 016 6v28a6 6 0 01-6 6H10a6 6 0 01-6-6V10a6 6 0 016-6z" id="Shape"/></g></svg>