<svg viewBox="0 0 48 48" xmlns="http://www.w3.org/2000/svg" id="dsmIcon"><g id="Icon/48/SensorColor" stroke-width="1" fill="#7C7C7C" fill-rule="evenodd"><path d="M34 24c0 5.522-4.477 10-10 10s-10-4.478-10-10 4.477-10 10-10 10 4.478 10 10" id="Path"/><path d="M24 9C15.729 9 9 15.729 9 24s6.729 15 15 15 15-6.729 15-15S32.271 9 24 9m0 2c7.18 0 13 5.82 13 13s-5.82 13-13 13-13-5.82-13-13 5.82-13 13-13" id="Shape"/><path d="M10 6a4 4 0 00-4 4v28a4 4 0 004 4h28a4 4 0 004-4V10a4 4 0 00-4-4H10zm0-2h28a6 6 0 016 6v28a6 6 0 01-6 6H10a6 6 0 01-6-6V10a6 6 0 016-6z" id="Shape"/></g></svg>