<svg viewBox="0 0 48 48" xmlns="http://www.w3.org/2000/svg" id="dsmIcon"><g id="Icon/48/SensorMotor" stroke-width="1" fill="#7C7C7C" fill-rule="evenodd"><path d="M17 24a6 6 0 11-12 0 6 6 0 0112 0m26 0a6 6 0 11-12 0 6 6 0 0112 0m-19 7a6 6 0 110 12 6 6 0 010-12m0-26a6 6 0 110 12 6 6 0 010-12" id="Shape"/><path d="M24.984 27a1 1 0 01-2 0v-6a1 1 0 012 0v6z" id="Path"/><path d="M27 22.97a1 1 0 010 2h-6.031a1 1 0 010-2H27z" id="Path"/><path d="M24 47C11.297 47 1 36.703 1 24S11.297 1 24 1s23 10.297 23 23-10.297 23-23 23zm0-2c11.598 0 21-9.402 21-21S35.598 3 24 3 3 12.402 3 24s9.402 21 21 21z" id="Shape"/></g></svg>